<svg width="28" height="52" viewBox="0 0 28 52" fill="none" xmlns="http://www.w3.org/2000/svg">
<path fill-rule="evenodd" clip-rule="evenodd" d="M1.28837 0.20194C1.04503 0.459892 1.01886 0.867682 1.23243 1.07268C1.46076 1.29174 2.30981 1.66452 2.58057 1.66452C2.74237 1.66452 2.87934 1.58752 2.99496 1.43159C3.339 0.967839 3.16244 0.615476 2.40634 0.257014C1.71293 -0.0717464 1.55379 -0.0796141 1.28837 0.20194ZM4.75774 1.89745C4.41829 2.3551 4.61069 2.71436 5.39513 3.08759C6.1664 3.45462 6.48902 3.41148 6.65066 2.91989C6.79887 2.46914 6.60739 2.18369 5.97117 1.90656C5.26017 1.59698 4.98216 1.59486 4.75774 1.89745ZM8.38343 3.46284C7.89042 3.98564 8.22112 4.47379 9.35602 4.89837C9.63978 5.00454 9.71581 5.00322 9.92563 4.88812C10.1885 4.74394 10.3013 4.44205 10.2203 4.09977C10.183 3.94171 10.0245 3.80981 9.63562 3.61304C8.84684 3.21382 8.64152 3.18916 8.38343 3.46284ZM16.4224 3.96292C16.2603 4.13477 16.2557 4.25756 16.2557 8.33873V12.5377H15.8481C15.571 12.5377 15.3775 12.5918 15.2437 12.7068L15.0469 12.8757V16.7367V20.5978L15.2345 20.7589C15.3377 20.8474 15.4221 20.9391 15.4221 20.9625C15.4221 21.0527 15.1063 21.1348 14.4946 21.2036C14.0953 21.2486 13.7075 21.3566 13.451 21.4944C12.9197 21.7799 12.3235 22.4625 12.1223 23.0156C11.9673 23.4418 11.9625 23.856 11.9625 36.6268V49.7984L12.146 50.2156C12.4052 50.8048 12.9303 51.3737 13.4868 51.668L13.9632 51.92H19.9254H25.8875L26.4463 51.6283C27.0643 51.3057 27.4711 50.8529 27.779 50.1449L27.9681 49.71L27.9903 36.8114C28.0145 22.803 28.0302 23.3315 27.5634 22.5472C27.0865 21.7462 26.3342 21.2947 25.3166 21.1991C24.549 21.1269 24.3915 21.0203 24.6828 20.7703L24.8837 20.5978V16.7477C24.8837 12.4098 24.9189 12.6401 24.2406 12.5441L23.8833 12.4935L23.8631 8.29453C23.8431 4.13804 23.8411 4.09393 23.6663 3.94082C23.5045 3.79903 23.2026 3.78612 20.0394 3.78612C16.7002 3.78612 16.5838 3.79178 16.4224 3.96292ZM12.0233 4.99447C11.965 5.01939 11.8603 5.15659 11.7906 5.29945C11.5938 5.70308 11.7648 5.98066 12.421 6.32294C13.1938 6.72605 13.5857 6.68883 13.7626 6.19547C13.9113 5.78078 13.7285 5.51638 13.0804 5.20919C12.531 4.94867 12.2598 4.8936 12.0233 4.99447ZM22.6746 8.82493V12.5377H20.0903H17.5061V12.3286C17.5061 12.1536 17.5871 12.0881 18.0033 11.9272C19.4841 11.3546 20.3603 9.4333 19.8796 7.81266C19.5835 6.81436 18.7045 5.85928 17.8604 5.61848C17.5743 5.53689 17.5061 5.47846 17.5061 5.31483V5.11213H20.0903H22.6746V8.82493ZM18.1038 6.94731C19.026 7.5868 19.2857 9.0698 18.6505 10.0692C18.4378 10.4039 17.8034 10.9465 17.6247 10.9465C17.5254 10.9465 17.5061 10.5947 17.5061 8.78347C17.5061 6.36193 17.4608 6.50133 18.1038 6.94731ZM0.363794 8.22116C0.186315 8.3123 0 8.64018 0 8.86135C0 8.92544 0.077777 9.08271 0.17281 9.2108C0.335867 9.43074 0.386302 9.44373 1.07404 9.44373C1.69192 9.44373 1.83022 9.41633 1.98494 9.26348C2.23286 9.01862 2.22311 8.61074 1.96277 8.33475C1.78162 8.14257 1.68867 8.11844 1.14998 8.12374C0.815535 8.12701 0.461744 8.17086 0.363794 8.22116ZM4.13769 8.30098C3.86243 8.53056 3.83651 9.00368 4.08476 9.26693C4.22548 9.41615 4.36261 9.44373 4.96382 9.44373C5.60904 9.44373 5.69549 9.42331 5.88081 9.22671C6.1078 8.98608 6.12989 8.84836 5.99293 8.52941C5.86255 8.22611 5.5817 8.11773 4.92572 8.11773C4.4769 8.11773 4.31109 8.15627 4.13769 8.30098ZM8.12784 8.21506C7.71978 8.46337 7.64475 8.83236 7.92552 9.2108C8.08857 9.43074 8.13901 9.44373 8.82675 9.44373C9.44463 9.44373 9.58293 9.41633 9.73765 9.26348C9.96373 9.04019 9.97415 8.65007 9.76157 8.3717C9.62336 8.19066 9.51924 8.16078 8.94879 8.13886C8.56432 8.12401 8.22579 8.15548 8.12784 8.21506ZM11.8904 8.30098C11.6151 8.53056 11.5892 9.00368 11.8375 9.26693C11.9777 9.41562 12.1153 9.44373 12.7035 9.44373C13.4789 9.44373 13.7038 9.33102 13.8014 8.89344C13.8445 8.70037 13.8052 8.59951 13.603 8.38514C13.3675 8.13541 13.3097 8.11773 12.7304 8.11773C12.229 8.11773 12.0679 8.15291 11.8904 8.30098ZM12.6294 11.1738C11.7453 11.5624 11.4848 12.0802 11.9568 12.5107C12.2384 12.7677 12.2952 12.7658 12.9365 12.4794C13.5501 12.2053 13.7235 12.0531 13.7997 11.7222C13.8444 11.5281 13.8063 11.4296 13.603 11.2139C13.3015 10.8942 13.2688 10.8929 12.6294 11.1738ZM8.92553 12.8878C8.6306 13.0247 8.33991 13.2084 8.27947 13.2961C8.00613 13.6925 8.29106 14.3057 8.74856 14.3057C9.07967 14.3057 10.0548 13.8271 10.1639 13.6111C10.3068 13.3279 10.2692 13.0766 10.0489 12.8432C9.79092 12.5695 9.59452 12.5773 8.92553 12.8878ZM23.6749 16.7367V19.6097H19.9653H16.2557V16.7367V13.8637H19.9653H23.6749V16.7367ZM5.27192 14.5738C4.55376 14.9246 4.40596 15.3657 4.85728 15.8115C5.08986 16.0413 5.25692 16.031 5.86663 15.7497C6.51211 15.4518 6.6775 15.2882 6.68692 14.9384C6.70451 14.2796 6.16082 14.1395 5.27192 14.5738ZM1.77462 16.2054C1.29662 16.4414 1.16182 16.5514 1.11664 16.7424C1.03695 17.0789 1.17249 17.4231 1.43758 17.5579C1.63799 17.6597 1.73085 17.642 2.29113 17.3946C3.17511 17.0044 3.39952 16.5767 2.96312 16.114C2.69669 15.8313 2.50162 15.8464 1.77462 16.2054ZM23.1658 21.2673C23.3745 21.6967 23.8034 22.1291 24.1906 22.3003C24.3597 22.3751 24.8009 22.4721 25.1711 22.5161C25.9207 22.605 26.3064 22.8344 26.5719 23.3492C26.7088 23.6148 26.7177 24.4186 26.7177 36.589V49.5461L26.4939 49.9047C26.3591 50.1206 26.125 50.3377 25.9049 50.4507C25.5438 50.636 25.4751 50.6382 19.978 50.6382C15.1616 50.6382 14.3752 50.62 14.1094 50.5022C13.7135 50.3268 13.5241 50.1408 13.3292 49.7356C13.1764 49.4182 13.1713 48.9917 13.1713 36.5154V23.6231L13.3933 23.26C13.695 22.7665 14.0826 22.5604 14.8242 22.4986C15.1902 22.4681 15.5826 22.3719 15.8034 22.2586C16.2013 22.0543 16.7328 21.462 16.8096 21.137L16.8573 20.9358H19.931H23.0046L23.1658 21.2673ZM16.2393 23.5346C15.7195 23.683 15.2272 24.0389 14.9204 24.4879C14.4243 25.2141 14.4217 25.2476 14.4217 30.8407C14.4217 35.8656 14.4242 35.9434 14.5945 36.1728C14.811 36.4647 15.2572 36.4922 15.5054 36.229C15.6683 36.0562 15.6721 35.9343 15.6721 30.9221C15.6721 25.3231 15.6672 25.3835 16.1508 25.0184C16.2869 24.9156 16.5559 24.8048 16.7487 24.7721C17.2262 24.6912 17.4505 24.482 17.4505 24.118C17.4505 23.9086 17.3857 23.7658 17.2236 23.618C16.9697 23.3864 16.807 23.3726 16.2393 23.5346Z" fill="#6B6B6B"/>
</svg>
