<svg width="21" height="24" viewBox="0 0 21 24" fill="none" xmlns="http://www.w3.org/2000/svg">
<path d="M20.4872 19.8839L16.0449 15.177C16.9627 13.7113 17.5 11.9563 17.5 10.0696C17.5 4.95756 13.5747 0.798584 8.74999 0.798584C3.92525 0.798584 0 4.95756 0 10.0696C0 15.1816 3.92525 19.3406 8.74999 19.3406C10.5306 19.3406 12.187 18.7714 13.5704 17.7988L18.0127 22.5057C18.6952 23.2298 19.8047 23.2298 20.4872 22.5057C21.1706 21.7817 21.1706 20.608 20.4872 19.8839ZM2.625 10.0696C2.625 6.49099 5.37249 3.57989 8.74999 3.57989C12.1275 3.57989 14.875 6.49099 14.875 10.0696C14.875 13.6482 12.1275 16.5593 8.74999 16.5593C5.37249 16.5593 2.625 13.6482 2.625 10.0696Z" fill="#20004B"/>
</svg>
