<svg width="22" height="20" viewBox="0 0 22 20" fill="none" xmlns="http://www.w3.org/2000/svg">
<path d="M11 12C13.7614 12 16 9.31371 16 6C16 2.68629 13.7614 0 11 0C8.23858 0 6 2.68629 6 6C6 9.31371 8.23858 12 11 12Z" fill="#20004B"/>
<path d="M20.8 17.1C19.9 15.3 18.2 13.8 16 12.9C15.4 12.7 14.7 12.7 14.2 13C13.2 13.6 12.2 13.9 11 13.9C9.79997 13.9 8.79997 13.6 7.79997 13C7.29997 12.8 6.59997 12.7 5.99997 13C3.79997 13.9 2.09997 15.4 1.19997 17.2C0.499973 18.5 1.59997 20 3.09997 20H18.9C20.4 20 21.5 18.5 20.8 17.1Z" fill="#20004B"/>
</svg>
