<svg width="24" height="22" viewBox="0 0 24 22" fill="none" xmlns="http://www.w3.org/2000/svg">
<path d="M23.2499 0.589844H20.414C20.3872 0.589844 20.3644 0.602356 20.3383 0.605103C20.2839 0.610657 20.2331 0.61969 20.1821 0.636658C20.1395 0.650757 20.101 0.668152 20.0621 0.68927C20.0173 0.713623 19.977 0.740051 19.938 0.772949C19.9021 0.803101 19.8717 0.835205 19.842 0.871399C19.8114 0.908691 19.7853 0.946655 19.7621 0.989868C19.7381 1.03424 19.7213 1.07977 19.7066 1.12897C19.6986 1.15564 19.6813 1.17706 19.6762 1.20508L19.2467 3.55243L0.892955 4.625C0.822643 4.62012 0.760631 4.63037 0.682018 4.6377C0.274303 4.6748 -0.0284315 5.03223 0.00184188 5.44043C0.00428328 5.47119 0.00818961 5.50098 0.0140489 5.53027L1.29286 12.5049C1.58534 13.5864 2.48622 14.6782 3.8412 14.6782H17.2108L16.9245 16.2427H5.67469C4.25038 16.2427 3.0912 17.4019 3.0912 18.8262C3.0912 20.251 4.25038 21.4102 5.67469 21.4102C7.09901 21.4102 8.25819 20.251 8.25819 18.8262C8.25819 18.438 8.16597 18.0733 8.01191 17.7427H14.92C14.7659 18.0733 14.6737 18.438 14.6737 18.8262C14.6737 20.251 15.8329 21.4102 17.2572 21.4102C18.6815 21.4102 19.8407 20.251 19.8407 18.8262C19.8407 17.8134 19.2493 16.9437 18.3986 16.5204L21.0391 2.08984H23.2499C23.664 2.08984 23.9999 1.75391 23.9999 1.33984C23.9999 0.925781 23.664 0.589844 23.2499 0.589844ZM18.022 10.2448L14.8438 10.2947L15.0169 8.45282L18.3683 8.35236L18.022 10.2448ZM2.14418 8.83875L5.32014 8.74353L5.5279 10.441L2.44636 10.4894L2.14418 8.83875ZM6.32344 8.71344L9.81434 8.60883V10.3737L6.53303 10.4252L6.32344 8.71344ZM9.81434 7.60791L6.20137 7.71625L5.97053 5.83087L9.81434 5.60614V7.60791ZM10.8143 5.54767L14.3046 5.34357L14.1039 7.47931L10.8143 7.57794V5.54767ZM9.81434 11.3739V13.1782H6.87007L6.65522 11.4235L9.81434 11.3739ZM10.8143 11.3582L13.7437 11.3123L13.5684 13.1782H10.8143V11.3582ZM10.8143 10.358V8.57886L14.0096 8.48303L13.8378 10.3105L10.8143 10.358ZM18.5524 7.34595L15.1112 7.4491L15.3145 5.28455L18.9688 5.07086L18.5524 7.34595ZM4.97065 5.88934L5.19801 7.74628L1.96186 7.84332C1.82551 7.10248 1.71693 6.52673 1.6244 6.08496L4.97065 5.88934ZM2.75477 12.1743L2.62892 11.4868L5.65016 11.4393L5.86305 13.1782H3.8412C3.19862 13.1782 2.84071 12.4819 2.75477 12.1743ZM14.5728 13.1782L14.7496 11.2964L17.8385 11.2479L17.4852 13.1782H14.5728ZM6.75819 18.8262C6.75819 19.4238 6.27235 19.9102 5.67469 19.9102C5.07704 19.9102 4.5912 19.4238 4.5912 18.8262C4.5912 18.2285 5.07704 17.7427 5.67469 17.7427C6.27235 17.7427 6.75819 18.2285 6.75819 18.8262ZM17.2572 19.9102C16.6596 19.9102 16.1737 19.4238 16.1737 18.8262C16.1737 18.2285 16.6596 17.7427 17.2572 17.7427C17.8549 17.7427 18.3407 18.2285 18.3407 18.8262C18.3407 19.4238 17.8549 19.9102 17.2572 19.9102Z" fill="#20004B"/>
</svg>
