<svg width="21" height="23" viewBox="0 0 21 23" fill="none" xmlns="http://www.w3.org/2000/svg">
<path d="M10.0762 13.9187C8.27282 12.4359 7.0687 10.6061 6.43565 9.56495L5.96344 8.67472C6.12855 8.49757 7.38765 7.14932 7.93328 6.41779C8.61896 5.49921 7.62482 4.66959 7.62482 4.66959C7.62482 4.66959 4.8275 1.87189 4.18999 1.31693C3.55248 0.761198 2.81862 1.06985 2.81862 1.06985C1.47872 1.9356 0.0896814 2.6883 0.00635047 6.30824C0.00324256 9.69742 2.57601 13.193 5.35818 15.8993C8.14481 18.9555 11.9708 22.0187 15.6698 22.0152C19.2894 21.9327 20.0419 20.5438 20.9077 19.2039C20.9077 19.2039 21.2165 18.4707 20.6614 17.8326C20.1058 17.1947 17.3077 14.3968 17.3077 14.3968C17.3077 14.3968 16.4787 13.4024 15.5599 14.0887C14.8752 14.6005 13.6456 15.739 13.3494 16.015C13.35 16.016 11.2931 14.9195 10.0762 13.9187Z" fill="white"/>
</svg>
