<svg width="43" height="43" viewBox="0 0 43 43" fill="none" xmlns="http://www.w3.org/2000/svg">
<path d="M21.5 2.15C32.1694 2.15 40.85 10.8306 40.85 21.5C40.85 32.1694 32.1705 40.85 21.5 40.85C10.8296 40.85 2.15 32.1694 2.15 21.5C2.15 10.8306 10.8306 2.15 21.5 2.15ZM21.5 0C9.62555 0 0 9.62555 0 21.5C0 33.3755 9.62555 43 21.5 43C33.3723 43 43 33.3755 43 21.5C43 9.62555 33.3734 0 21.5 0Z" fill="white"/>
<path fill-rule="evenodd" clip-rule="evenodd" d="M13.4773 11.4391H29.5228C31.045 11.4391 32.292 12.685 32.292 14.2094V30.2537C32.292 31.7781 31.045 33.024 29.5228 33.024H13.4773C11.954 33.024 10.707 31.7781 10.707 30.2537V14.2094C10.707 12.685 11.954 11.4391 13.4773 11.4391ZM26.4321 13.8374C25.8968 13.8374 25.4603 14.2749 25.4603 14.8092V17.1355C25.4603 17.6698 25.8968 18.1062 26.4321 18.1062H28.8724C29.4056 18.1062 29.842 17.6698 29.842 17.1355V14.8092C29.842 14.2749 29.4056 13.8374 28.8724 13.8374H26.4321ZM29.8528 20.5669H27.9522C28.1328 21.1539 28.2295 21.7752 28.2295 22.4202C28.2295 26.0107 25.2249 28.9207 21.5215 28.9207C17.816 28.9207 14.8103 26.0107 14.8103 22.4202C14.8103 21.7752 14.9081 21.1539 15.0877 20.5669H13.1054V29.6851C13.1054 30.157 13.4902 30.544 13.9632 30.544H28.9949C29.4658 30.544 29.8517 30.1581 29.8517 29.6851V20.5669H29.8528ZM21.5215 17.9848C19.1254 17.9848 17.185 19.8649 17.185 22.1848C17.185 24.5057 19.1254 26.387 21.5215 26.387C23.9145 26.387 25.8549 24.5057 25.8549 22.1848C25.8549 19.8649 23.9145 17.9848 21.5215 17.9848Z" fill="white"/>
</svg>
