<svg width="208" height="69" viewBox="0 0 208 69" fill="none" xmlns="http://www.w3.org/2000/svg">
<path fill-rule="evenodd" clip-rule="evenodd" d="M37.7309 56.1985C37.6574 56.4709 37.5341 57.7313 37.7602 57.9737C37.9659 58.1942 39.0703 58.1275 39.2937 58.0688C39.3193 58.0621 39.3543 58.044 39.374 58.0375L39.5205 57.9572C39.7513 57.6124 39.6705 56.5889 39.562 56.1561L37.7309 56.1985Z" fill="#4C0181"/>
<path fill-rule="evenodd" clip-rule="evenodd" d="M4.0526 49.2014L5.65078 48.4956L4.97869 46.9288L3.34033 47.5478L4.0526 49.2014Z" fill="#4C0181"/>
<path fill-rule="evenodd" clip-rule="evenodd" d="M1.63762 42.5895L3.33544 42.198L2.99429 40.5514L1.27173 40.8396L1.63762 42.5895Z" fill="#4C0181"/>
<path fill-rule="evenodd" clip-rule="evenodd" d="M2.68023 45.9535L4.33765 45.4157L3.73842 43.8156L2.12866 44.2573L2.68023 45.9535Z" fill="#4C0181"/>
<path fill-rule="evenodd" clip-rule="evenodd" d="M15.5335 62.3583C15.8202 62.0701 16.3491 61.3284 16.5263 60.9108C15.9966 60.6833 15.6792 60.292 15.1308 60.0223C14.9449 60.3879 14.4134 60.9561 14.136 61.2809C14.3841 61.5997 15.1638 62.1324 15.5335 62.3583Z" fill="#4C0181"/>
<path fill-rule="evenodd" clip-rule="evenodd" d="M11.2549 10.3028C11.6528 10.6895 11.8616 11.1775 12.4524 11.5076C12.8481 11.0954 13.1524 10.936 13.5889 10.4692C13.4155 10.0234 12.8603 9.52818 12.5584 9.14844C12.1465 9.37642 11.5899 9.9749 11.2549 10.3028Z" fill="#4C0181"/>
<path fill-rule="evenodd" clip-rule="evenodd" d="M9.03394 56.5276C9.26523 56.8771 9.86333 57.5146 10.1704 57.7523C10.4834 57.5509 11.1855 56.9159 11.393 56.6307C11.1219 56.3152 10.6886 55.7262 10.2744 55.4468C9.88239 55.6966 9.27136 56.2182 9.03394 56.5276Z" fill="#4C0181"/>
<path fill-rule="evenodd" clip-rule="evenodd" d="M0.983256 39.1166L2.69924 38.8996L2.49268 37.2408L0.787598 37.366L0.983256 39.1166Z" fill="#4C0181"/>
<path fill-rule="evenodd" clip-rule="evenodd" d="M32.1169 66.9983L30.4761 66.7439L30.1758 68.377C30.5991 68.5801 31.4151 68.7148 31.8995 68.6367L32.1169 66.9983Z" fill="#4C0181"/>
<path fill-rule="evenodd" clip-rule="evenodd" d="M18.461 64.2329C18.8314 63.9068 19.1437 63.2628 19.3666 62.8129C19.1968 62.6014 18.2506 62.0566 17.933 61.9734L17.0339 63.367L18.461 64.2329Z" fill="#4C0181"/>
<path fill-rule="evenodd" clip-rule="evenodd" d="M23.1045 2.73218L23.6733 4.35805L25.2449 3.79768C25.1432 3.27429 24.9707 2.61289 24.6909 2.19617L23.1045 2.73218Z" fill="#4C0181"/>
<path fill-rule="evenodd" clip-rule="evenodd" d="M13.9502 7.99587C14.0569 8.23197 14.6949 9.09699 14.9417 9.31122C15.2281 9.19599 15.924 8.60946 16.2609 8.38238L15.3523 6.97412C15.0334 7.09183 14.1915 7.72233 13.9502 7.99587Z" fill="#4C0181"/>
<path fill-rule="evenodd" clip-rule="evenodd" d="M4.77739 22.4849C5.11605 22.1435 5.33078 21.4492 5.49715 20.9795L3.95073 20.2588L3.29248 21.8033C3.67177 22.1075 4.30959 22.287 4.77739 22.4849Z" fill="#4C0181"/>
<path fill-rule="evenodd" clip-rule="evenodd" d="M4.97363 50.7575C5.28846 51.277 5.37857 51.6787 5.83412 52.2372L7.27296 51.4193C7.13813 51.0319 6.67804 50.2645 6.43335 49.9412L4.97363 50.7575Z" fill="#4C0181"/>
<path fill-rule="evenodd" clip-rule="evenodd" d="M3.26374 27.2576L1.575 26.8959L1.23657 28.5973L2.92123 28.9031L3.26374 27.2576Z" fill="#4C0181"/>
<path fill-rule="evenodd" clip-rule="evenodd" d="M0.628906 35.5513L2.40436 35.5788L2.36282 33.8882L0.628906 33.9022V35.5513Z" fill="#4C0181"/>
<path fill-rule="evenodd" clip-rule="evenodd" d="M2.65887 30.5602L0.938125 30.3392L0.784912 32.0043L1.58684 32.1572C1.89258 32.1811 2.19538 32.2086 2.48705 32.2271L2.65887 30.5602Z" fill="#4C0181"/>
<path fill-rule="evenodd" clip-rule="evenodd" d="M26.4412 1.60621L26.8636 3.26184L28.5106 2.83835L28.1272 1.18542L26.4412 1.60621Z" fill="#4C0181"/>
<path fill-rule="evenodd" clip-rule="evenodd" d="M25.5543 65.4708L23.9612 64.9368L23.3506 66.5234L25.0087 67.0799L25.5543 65.4708Z" fill="#4C0181"/>
<path fill-rule="evenodd" clip-rule="evenodd" d="M4.22474 24.0854L2.60318 23.4854L2.09814 25.1746L3.7197 25.6443L4.22474 24.0854Z" fill="#4C0181"/>
<path fill-rule="evenodd" clip-rule="evenodd" d="M29.8704 0.783363L30.1509 2.4435C30.5052 2.43381 30.7227 2.38465 31.0225 2.3391L31.8183 2.12262C31.7543 1.61005 31.7359 0.95948 31.5362 0.541626L29.8704 0.783363Z" fill="#4C0181"/>
<path fill-rule="evenodd" clip-rule="evenodd" d="M28.7592 66.3881L27.1737 65.9928L26.7197 67.6437L28.418 68.0579L28.7592 66.3881Z" fill="#4C0181"/>
<path fill-rule="evenodd" clip-rule="evenodd" d="M19.8474 4.19682L20.6176 5.71377L22.0972 5.03749L21.469 3.46777L19.8474 4.19682Z" fill="#4C0181"/>
<path fill-rule="evenodd" clip-rule="evenodd" d="M33.3875 0.275812L33.4987 2.00744L35.1527 1.88251L35.1191 0.217407L33.3875 0.275812Z" fill="#4C0181"/>
<path fill-rule="evenodd" clip-rule="evenodd" d="M35.1327 67.2786L33.818 67.1918L33.6328 68.7468C33.796 68.915 33.8607 68.9243 34.2373 68.9525C34.514 68.973 34.807 68.9845 35.0866 69.0003L35.1327 67.2786Z" fill="#4C0181"/>
<path fill-rule="evenodd" clip-rule="evenodd" d="M41.6274 60.6491C41.7597 62.3155 43.4033 62.1229 45.0189 62.1229C51.218 62.1229 51.3919 62.8409 51.3919 58.6915C51.3919 52.7324 52.1514 52.414 47.9232 52.414C46.5456 52.414 44.3387 52.2823 43.0603 52.4298C41.4279 52.6181 41.6206 54.229 41.6206 55.8064C41.6208 57.2934 41.5134 59.2153 41.6274 60.6491Z" fill="#4B0080"/>
<path fill-rule="evenodd" clip-rule="evenodd" d="M43.8145 8.39072C42.2933 8.8751 42.6547 10.3826 42.6547 12.1176C42.6547 18.1691 42.0602 18.0081 46.4711 18.0081C47.365 18.0081 50.6816 18.115 51.2956 17.9409C52.7558 17.5269 52.4292 15.7211 52.4292 14.1782C52.4292 13.2979 52.5347 9.98727 52.3441 9.37706C51.9176 8.01233 50.0581 8.29849 48.5455 8.29849C47.6421 8.29872 44.4224 8.19724 43.8145 8.39072Z" fill="#4B0080"/>
<path fill-rule="evenodd" clip-rule="evenodd" d="M54.7706 27.9856C54.9526 29.4164 56.5849 29.1907 57.9838 29.1907C59.031 29.1907 61.3982 29.3165 62.2932 29.1639C63.7066 28.923 63.4885 27.4376 63.4888 26.028C63.489 20.6843 64.1572 20.5127 60.2656 20.5127C59.216 20.5127 56.8656 20.3869 55.9668 20.5371C54.5532 20.7734 54.7549 22.2347 54.7552 23.6578C54.7552 24.8496 54.6317 26.8951 54.7706 27.9856Z" fill="#4B0080"/>
<path fill-rule="evenodd" clip-rule="evenodd" d="M40.8878 42.205C41.0099 43.4179 42.3071 43.2664 43.4633 43.2662C47.9072 43.2653 48.1366 43.8234 48.136 40.6594C48.1353 36.1464 48.6505 36.0607 45.5377 36.061C41.0671 36.0614 40.8785 35.5222 40.8791 38.5985C40.8794 39.6597 40.7868 41.2022 40.8878 42.205Z" fill="#4B0080"/>
<path fill-rule="evenodd" clip-rule="evenodd" d="M54.2878 54.7759C54.4671 55.4955 55.3453 55.3924 56.1168 55.3906C56.6462 55.3895 58.1606 55.4562 58.5757 55.359C59.3373 55.1807 59.2315 54.3481 59.2294 53.5395C59.2226 50.6183 59.5956 50.447 57.3618 50.4521C54.4406 50.4587 54.2533 50.0891 54.2585 52.3031C54.2594 52.803 54.1943 54.4002 54.2878 54.7759Z" fill="#4B0080"/>
<path fill-rule="evenodd" clip-rule="evenodd" d="M56.2205 18.4108C57.3127 18.4108 57.9045 18.4582 58.9665 18.329C59.2954 17.7769 59.1783 16.9624 59.181 16.1353C59.1872 14.3074 59.3106 14.5433 56.2205 14.5435C54.9944 14.5435 55.284 15.3152 55.2842 16.4451C55.2844 17.5467 54.9771 18.4108 56.2205 18.4108Z" fill="#4B0080"/>
<path fill-rule="evenodd" clip-rule="evenodd" d="M37.322 8.13954C37.9412 8.46449 40.1304 8.4478 40.8938 8.21283C41.1943 7.57578 41.0851 6.49834 41.0894 5.62204C41.0965 4.22935 40.5928 4.48597 39.3149 4.48777C38.2345 4.48935 37.2707 4.1741 37.2119 5.30927C37.1751 6.01915 37.1645 7.56677 37.322 8.13954Z" fill="#4B0080"/>
<path fill-rule="evenodd" clip-rule="evenodd" d="M38.146 46.2023C37.8505 46.8317 37.9588 47.9903 37.9767 48.8066C38.0023 49.9815 38.7866 49.6876 39.8336 49.6881C40.9837 49.6885 41.6148 49.9621 41.617 48.7031C41.6182 47.9876 41.8624 46.64 41.3215 46.1802C40.8017 45.9736 38.674 46.032 38.146 46.2023Z" fill="#4B0080"/>
<path fill-rule="evenodd" clip-rule="evenodd" d="M65.4514 34.2629C66.236 34.2629 66.3425 34.0753 66.3427 33.3436C66.3429 31.3774 66.6067 30.6576 65.4514 30.6574C63.1189 30.6574 62.7235 30.4068 62.7151 31.5919C62.7058 32.8932 62.6059 32.8903 62.829 34.1035C63.4739 34.3653 64.58 34.2629 65.4514 34.2629Z" fill="#4B0080"/>
<path fill-rule="evenodd" clip-rule="evenodd" d="M38.0502 62.8928C37.892 63.4133 37.8813 64.9927 38.0734 65.4885C38.5736 65.6611 40.163 65.6599 40.6651 65.4915C40.8557 65.0012 40.8448 63.4051 40.6882 62.8892C40.1582 62.7135 38.573 62.7097 38.0502 62.8928Z" fill="#4B0080"/>
<path fill-rule="evenodd" clip-rule="evenodd" d="M37.917 15.621C37.9168 16.9526 37.7427 17.3718 38.3898 17.4478C38.6903 17.483 39.292 17.4458 39.6259 17.4464C40.5881 17.4446 40.4394 17.4034 40.4392 15.621C40.4392 14.7801 40.1995 14.9393 38.6926 14.9389C38.0543 14.9389 37.9172 14.9341 37.917 15.621Z" fill="#4B0080"/>
<path fill-rule="evenodd" clip-rule="evenodd" d="M54.8723 30.8673C54.5316 30.6738 53.756 30.7203 53.3039 30.7541C52.5989 30.8069 52.7773 31.2443 52.7755 31.9021C52.7734 32.6467 52.6232 32.9379 53.409 32.9735C53.8234 32.9922 54.5922 33.0883 54.8594 32.8093C55.11 32.4959 55.1002 31.2829 54.8723 30.8673Z" fill="#4B0080"/>
<path fill-rule="evenodd" clip-rule="evenodd" d="M52.8046 19.7333C52.5674 19.5924 51.4159 19.4587 51.1496 19.7505C50.9474 19.9719 51.0618 21.1398 51.116 21.4142C51.4867 21.4913 52.4516 21.5998 52.7496 21.3644C52.9489 21.1835 52.8411 21.4868 52.9258 20.9824C52.9859 20.6254 52.9573 19.971 52.8046 19.7333Z" fill="#4B0080"/>
<path fill-rule="evenodd" clip-rule="evenodd" d="M47.4254 46.6046C47.1548 46.4945 46.5299 46.4691 46.1547 46.5243C45.6172 46.603 45.7307 46.8982 45.7293 47.461C45.7277 48.1238 45.614 48.2884 46.2489 48.3405C46.6418 48.373 47.1042 48.3579 47.4776 48.2534C47.5994 47.8397 47.6172 47.1995 47.4982 46.7672L47.4254 46.6046Z" fill="#4B0080"/>
<path fill-rule="evenodd" clip-rule="evenodd" d="M8.8147 12.9532C9.01444 13.0552 9.87811 13.7682 10.034 13.9628C10.4426 13.7102 10.9638 13.1032 11.1878 12.7108C10.9215 12.3617 10.3459 11.802 9.96322 11.6135C9.54058 12.0413 9.09298 12.3951 8.8147 12.9532Z" fill="#4B0080"/>
<path fill-rule="evenodd" clip-rule="evenodd" d="M6.66943 15.7005C7.06211 15.9829 7.68064 16.4492 8.08625 16.637C8.35182 16.1578 8.7672 15.7445 8.99146 15.312C8.75585 15.0222 7.97117 14.3969 7.68154 14.2927C7.45638 14.4837 6.77634 15.4182 6.66943 15.7005Z" fill="#4B0080"/>
<path fill-rule="evenodd" clip-rule="evenodd" d="M11.4529 59.0299C11.8676 59.4759 12.2657 59.8649 12.7607 60.2041C13.0828 59.9152 13.495 59.3585 13.8158 59.0006C13.6224 58.6141 12.8953 58 12.5574 57.869L11.4529 59.0299Z" fill="#4B0080"/>
<path fill-rule="evenodd" clip-rule="evenodd" d="M7.61342 54.8423C7.64656 54.879 7.73213 54.9604 7.77162 54.9972C7.7832 55.0078 7.82156 55.0628 7.82996 55.0452C7.83836 55.0274 7.86832 55.0779 7.88897 55.0924C8.22241 54.907 9.00141 54.3308 9.21704 54.0546C8.89042 53.6561 8.58059 53.1343 8.20039 52.7983C7.90305 52.9402 7.09998 53.4976 6.86597 53.7452L7.61342 54.8423Z" fill="#4B0080"/>
<path fill-rule="evenodd" clip-rule="evenodd" d="M16.8005 5.91224C17.0443 6.48028 17.4182 6.85438 17.6354 7.38972C18.1418 7.22263 18.6162 6.79778 19.1014 6.60205C18.9714 6.22636 18.554 5.4105 18.2607 5.08826C17.7518 5.33631 17.247 5.735 16.8005 5.91224Z" fill="#4B0080"/>
<path fill-rule="evenodd" clip-rule="evenodd" d="M6.361 19.484C6.54917 18.9083 6.92913 18.5707 7.10005 17.9757C6.5587 17.7702 6.11926 17.3179 5.62467 17.179L4.80322 18.6912L6.361 19.484Z" fill="#4B0080"/>
<path fill-rule="evenodd" clip-rule="evenodd" d="M22.4047 64.2595L20.8784 63.5668L20.1326 65.1155L21.7276 65.8008L22.4047 64.2595Z" fill="#4B0080"/>
<path fill-rule="evenodd" clip-rule="evenodd" d="M6.01722 24.6508C5.24412 25.8967 4.47284 30.4155 4.30669 32.2531C4.04271 35.1697 4.20023 38.1973 4.76882 40.9766C5.88239 46.42 7.86621 50.0661 10.5217 53.7043C11.6881 55.3027 12.481 56.029 13.8653 57.3926C15.9654 59.4614 17.8933 60.7869 20.5608 62.2768C24.6399 64.555 29.8469 65.89 35.3827 65.9847L35.3609 54.4853C24.5085 54.4323 16.0167 46.0456 15.7584 35.0046C14.1066 34.9422 12.3518 34.9918 10.6892 34.9943C8.89126 34.9968 7.8594 34.7379 6.98916 33.7195C5.99112 32.5514 6.0322 31.4719 6.0322 29.6339C6.03266 28.01 6.09462 26.2597 6.01722 24.6508Z" fill="#20004B"/>
<path fill-rule="evenodd" clip-rule="evenodd" d="M136.275 25.3213C133.805 25.2117 131.108 25.3089 128.614 25.3089C126 25.3089 124.119 25.1463 121.807 26.0652C118.631 27.328 115.734 30.4548 115.329 34.6801C114.866 39.5065 117.614 42.9878 120.343 44.6517C121.966 45.641 124.122 46.2521 126.44 46.1206C129.26 45.9608 130.133 45.1814 132.032 44.1261C132.032 46.6824 131.913 48.0954 130.57 49.7138C130.069 50.3184 129.369 50.8902 128.596 51.2558C127.429 51.8071 127.055 51.705 125.759 51.9485L125.757 56.0754C126.919 56.3138 129.191 55.6312 130.084 55.2059C131.397 54.581 132.304 53.9284 133.15 53.0995C134.737 51.5446 136.104 49.0982 136.268 45.8994C136.435 42.6342 136.277 38.9249 136.277 35.6105C136.277 32.1853 136.309 28.7446 136.275 25.3213ZM132.032 29.4971C132.033 32.1466 132.387 36.2446 131.468 38.3476C130.563 40.4188 128.255 41.9861 125.71 41.9581C123.83 41.9374 122.235 41.0293 121.34 40.1586C117.692 36.6128 119.701 29.5776 125.814 29.4935C127.866 29.4653 129.979 29.4701 132.032 29.4971Z" fill="#20004B"/>
<path fill-rule="evenodd" clip-rule="evenodd" d="M21.5794 21.0607C22.4819 20.6275 26.5376 15.5619 35.3831 15.4987L35.3583 3.99817C28.9391 4.09852 23.386 5.87118 18.9281 8.65815C16.0304 10.4701 14.553 11.8772 12.3905 14.0113C11.4695 14.9208 8.9688 18.2478 8.49146 19.3293C10.1595 18.9076 14.023 19.1167 15.9789 19.1167C19.2393 19.1164 19.8078 18.8431 21.5794 21.0607Z" fill="#20004B"/>
<path fill-rule="evenodd" clip-rule="evenodd" d="M109.462 36.8485L109.471 46.2062L113.707 46.2116L113.698 25.4138L109.463 25.4501L109.463 32.3135C109.287 32.59 109.136 32.5669 108.741 32.665C108.471 32.7318 108.227 32.7954 107.922 32.8793C105.983 33.413 98.2807 35.5267 96.9518 35.7756L96.9468 25.4199L92.7063 25.4156L92.7226 46.2125L96.9504 46.1843L96.9574 40.1515L109.462 36.8485Z" fill="#20004B"/>
<path fill-rule="evenodd" clip-rule="evenodd" d="M176.861 36.8471C177.339 42.3833 182.17 47.0093 188.366 46.446C193.951 45.9379 198.32 40.9246 197.805 34.6791C197.344 29.0909 192.487 24.4858 186.267 25.082C180.635 25.6218 176.319 30.5572 176.861 36.8471ZM193.702 36.6407C192.667 45.0039 179.994 43.9968 181.007 34.7916C181.38 31.3996 184.374 28.6262 188.305 29.1694C191.607 29.6261 194.182 32.758 193.702 36.6407Z" fill="#20004B"/>
<path fill-rule="evenodd" clip-rule="evenodd" d="M69.9253 25.3206C69.8845 28.7839 69.869 32.3567 69.9237 35.8175C69.9753 39.0802 71.4043 41.5526 72.9989 43.1557C74.6186 44.7838 77.1483 46.1763 80.4882 46.2097C81.961 46.2243 90.0899 46.2972 90.9248 46.1752L90.9227 25.3143L86.6807 25.308L86.68 41.966C85.4754 42.1015 80.5792 42.0932 79.4447 41.9132C77.307 41.5741 75.9347 40.2896 75.0638 38.9416C73.8903 37.1251 74.1676 34.8722 74.1676 32.5195C74.1676 30.1188 74.1903 27.7071 74.1644 25.308L69.9253 25.3206Z" fill="#20004B"/>
<path fill-rule="evenodd" clip-rule="evenodd" d="M138.454 25.3077C138.404 28.7719 138.404 32.3522 138.452 35.8168C138.496 39.0482 139.968 41.6302 141.526 43.1853C143.078 44.7347 145.696 46.1668 148.939 46.2095C152.428 46.2552 155.942 46.2011 159.45 46.2115L159.446 25.3062L155.208 25.3501L155.205 41.9944C149.861 41.9975 145.987 42.7992 143.607 38.9503C142.403 37.0018 142.695 34.9971 142.695 32.5193C142.695 30.1267 142.716 27.7249 142.692 25.3122L138.454 25.3077Z" fill="#20004B"/>
<path fill-rule="evenodd" clip-rule="evenodd" d="M165.835 29.6375C167.788 29.6373 169.503 29.5407 170.843 31.3702C171.272 31.9574 171.254 32.3839 171.553 32.4686L175.708 32.4709C175.647 29.115 173.803 27.1277 171.532 26.0443C169.464 25.0578 164.228 25.4161 161.562 25.4161L161.573 46.2116L165.826 46.1985L165.834 45.8118L165.835 29.6375Z" fill="#20004B"/>
<path fill-rule="evenodd" clip-rule="evenodd" d="M20.5538 32.5184C20.3822 32.8513 20.5794 32.4262 20.5284 32.9072C20.507 33.1077 20.4255 33.4452 20.1963 33.5131C19.94 33.5889 20.0072 33.4655 19.8558 33.39C20.041 33.7373 20.2587 33.6653 20.4984 34.2334C19.8043 34.0683 20.1005 33.8027 19.8152 34.0045C19.8803 34.2167 19.7464 33.979 19.9455 34.2478L22.5998 36.8472C22.3687 39.0864 22.4511 41.5094 22.4511 43.8537C22.4511 46.668 22.147 48.175 25.3127 48.1667C35.1898 48.14 34.9558 49.0808 34.9558 43.4415L34.9576 37.9756C34.9228 36.3935 34.1007 37.4962 36.7857 34.8497C37.1173 34.5229 38.2536 33.2044 38.6526 33.201C40.968 33.183 43.4737 33.2601 45.8488 33.2594C48.4273 33.2588 48.0816 32.9886 48.7971 33.7118C49.2408 34.1603 50.1392 35.1564 50.5993 35.4389C50.5551 34.9351 50.5616 35.3072 50.7233 35.1584L51.3942 35.8495L51.9145 35.7826C51.9265 35.7819 51.9576 35.776 51.9701 35.7751C51.983 35.7745 52.0155 35.7686 52.0286 35.7677L52.2908 35.7614C52.4899 35.719 52.3173 35.5048 52.7604 35.7846L52.0075 34.9924C52.2002 34.7926 51.9499 34.9194 52.2915 34.8779C51.8482 34.1995 50.371 32.967 49.717 32.276C49.3577 31.8963 49.5625 31.9608 49.6142 31.2895L49.5902 22.5281C49.4864 21.8547 48.9868 21.3045 48.4662 21.0562C47.6735 20.6783 42.065 20.8528 40.9742 20.8524C39.1824 20.8517 37.7592 20.6938 37.2469 22.222C36.9307 23.1646 37.135 30.7676 37.2598 32.1285L34.2301 35.0928C33.2815 36.0378 33.7575 35.7422 32.0549 35.7433L26.039 35.7415C24.1594 35.7409 24.084 35.9742 23.5418 35.4141C23.0115 34.8664 21.022 32.753 20.5538 32.5184Z" fill="#A135E8"/>
<path fill-rule="evenodd" clip-rule="evenodd" d="M50.5994 35.4389C50.7989 35.8378 51.5595 36.5155 51.9597 36.8472C51.7645 38.8544 51.8154 40.8501 51.8154 42.9265C51.8154 45.0146 51.3646 47.216 53.0124 47.9732C53.771 48.3216 57.8499 48.164 59.0206 48.1631C64.8845 48.1581 64.3107 48.5706 64.3107 41.1748C64.3107 40.0838 64.4782 37.5356 64.0585 36.7872C63.9026 36.5094 63.5439 36.1628 63.2834 36.0131C62.5109 35.569 55.9707 35.7226 54.2454 35.742C53.5524 35.7499 53.4194 35.9215 53.0481 35.5731C52.7616 35.3043 52.6273 35.0675 52.2911 34.8777C51.9495 34.9192 52.1999 34.7924 52.0072 34.9922L52.76 35.7844C52.3168 35.5046 52.4895 35.7188 52.2904 35.7612L52.0283 35.7675C52.0151 35.7684 51.9826 35.774 51.9697 35.7749C51.9572 35.7758 51.9263 35.7817 51.9141 35.7824L51.3938 35.8493L50.7229 35.1582C50.5617 35.307 50.5551 34.9352 50.5994 35.4389Z" fill="#BB3AF1"/>
<path fill-rule="evenodd" clip-rule="evenodd" d="M19.8151 34.0045C20.1002 33.8027 19.8042 34.0683 20.4983 34.2334C20.2586 33.6651 20.041 33.7373 19.8557 33.39C20.0071 33.4654 19.9399 33.5889 20.1962 33.5132C20.4255 33.4455 20.5069 33.1079 20.5283 32.9072C20.5794 32.4262 20.3819 32.8513 20.5537 32.5185C20.0823 31.7721 20.1288 32.4819 20.2493 31.3914L20.2686 23.6578C20.2772 20.7511 19.0238 20.8526 16.7045 20.8519L10.4814 20.8479C7.04649 20.8316 7.7751 23.0788 7.7751 27.5734C7.7751 29.6456 7.41805 32.0447 8.64648 32.9007C9.79432 33.7003 18.6207 33.0534 18.976 33.2644C19.2511 33.4277 19.39 33.7783 19.8151 34.0045Z" fill="#822FDB"/>
<path fill-rule="evenodd" clip-rule="evenodd" d="M198.263 22.4463V22.9561C198.28 23.0021 198.307 23.3807 198.321 23.4763C198.472 24.5006 198.979 25.4565 199.683 26.158C200.387 26.86 201.348 27.3698 202.386 27.5232C202.469 27.5356 202.861 27.5676 202.894 27.582H203.395C203.452 27.5543 203.809 27.5347 203.903 27.5191C204.38 27.4402 204.803 27.3105 205.228 27.1092C206.659 26.4313 207.718 25.047 207.942 23.4743C207.955 23.3879 207.985 22.9933 208 22.9557V22.4214C207.975 22.3759 207.971 22.2302 207.963 22.166C207.83 21.0709 207.322 20.0618 206.559 19.3122C205.983 18.7455 205.234 18.2975 204.384 18.0731C204.236 18.0341 204.077 17.9991 203.915 17.9734C203.831 17.9604 203.746 17.9484 203.661 17.9412L203.42 17.9089H202.805C202.764 17.9313 202.71 17.9281 202.663 17.9326L202.302 17.9809C201.297 18.1534 200.368 18.6434 199.683 19.333C199.109 19.91 198.66 20.6393 198.431 21.4901C198.391 21.641 198.356 21.7955 198.33 21.9565C198.317 22.0354 198.305 22.117 198.297 22.1944L198.268 22.4352C198.267 22.4334 198.265 22.4426 198.263 22.4463ZM202.831 18.7234C203.375 18.6493 204.128 18.8044 204.576 18.9749C205.521 19.3346 206.242 19.9878 206.727 20.8729C207.509 22.3026 207.275 24.2476 206.156 25.4328C205.409 26.2252 204.609 26.6435 203.442 26.7678C202.865 26.8291 202.168 26.6999 201.687 26.5154C201.235 26.3416 200.765 26.0678 200.426 25.7505C199.636 25.0113 199.201 24.2124 199.084 23.0506C198.961 21.8376 199.525 20.6763 200.106 20.0573C200.426 19.7161 200.75 19.4347 201.246 19.1731C201.83 18.866 202.192 18.8107 202.831 18.7234Z" fill="#20004B"/>
<path fill-rule="evenodd" clip-rule="evenodd" d="M203.558 23.0861C205 22.9393 205.41 21.5561 204.679 20.7249C204.311 20.3066 203.806 20.2387 203.076 20.2295C202.926 20.2275 201.116 20.202 201.009 20.2207L201.011 25.412L201.846 25.4081C201.874 25.0072 201.813 23.377 201.856 23.2063C202.741 23.2104 202.959 23.1373 203.498 23.9293C203.751 24.3009 204.139 24.997 204.369 25.4122L205.387 25.4135C205.373 25.3572 205.043 24.8509 204.986 24.7587C204.854 24.5449 204.722 24.3314 204.581 24.1246C204.425 23.8961 204.303 23.7252 204.135 23.532C204.057 23.4433 203.973 23.3461 203.868 23.2711C203.829 23.2431 203.568 23.1078 203.558 23.0861ZM201.849 22.5012L201.847 20.9218C202.141 20.9193 203.114 20.917 203.355 20.9459C204.261 21.0541 204.297 21.8808 203.91 22.2473C203.617 22.524 203.006 22.4897 202.617 22.4917C202.366 22.4931 202.104 22.4965 201.849 22.5012Z" fill="#20004B"/>
</svg>
