<svg width="111" height="37" viewBox="0 0 111 37" fill="none" xmlns="http://www.w3.org/2000/svg">
<path fill-rule="evenodd" clip-rule="evenodd" d="M20.3665 30.0153C20.3265 30.1641 20.2596 30.8517 20.3823 30.9838C20.494 31.1042 21.0934 31.0679 21.2146 31.0359C21.2285 31.0322 21.2475 31.0224 21.2582 31.0188L21.3377 30.975C21.463 30.7869 21.4191 30.2285 21.3602 29.9923L20.3665 30.0153Z" fill="white"/>
<path fill-rule="evenodd" clip-rule="evenodd" d="M2.08835 26.1978L2.95561 25.8126L2.59085 24.9579L1.70166 25.2956L2.08835 26.1978Z" fill="white"/>
<path fill-rule="evenodd" clip-rule="evenodd" d="M0.777684 22.5901L1.69915 22.3765L1.51411 21.4781L0.579102 21.6355L0.777684 22.5901Z" fill="white"/>
<path fill-rule="evenodd" clip-rule="evenodd" d="M1.34317 24.4256L2.24271 24.1325L1.91749 23.2592L1.04395 23.5003L1.34317 24.4256Z" fill="white"/>
<path fill-rule="evenodd" clip-rule="evenodd" d="M8.31903 33.3761C8.47462 33.2188 8.76165 32.8142 8.85786 32.5863C8.57034 32.4622 8.39812 32.2487 8.10049 32.1016C7.9996 32.301 7.71109 32.611 7.56055 32.7881C7.69519 32.9622 8.11835 33.2528 8.31903 33.3761Z" fill="white"/>
<path fill-rule="evenodd" clip-rule="evenodd" d="M5.99707 4.9743C6.21302 5.18542 6.32636 5.45167 6.64702 5.63167C6.86174 5.40689 7.02694 5.3199 7.26383 5.06522C7.16972 4.82186 6.86839 4.55167 6.70455 4.34448C6.48096 4.46899 6.1789 4.79553 5.99707 4.9743Z" fill="white"/>
<path fill-rule="evenodd" clip-rule="evenodd" d="M4.7915 30.1949C4.91703 30.3856 5.24164 30.7335 5.40844 30.8631C5.57832 30.7533 5.95935 30.4067 6.07194 30.251C5.92485 30.079 5.68968 29.7575 5.46486 29.6051C5.25199 29.7414 4.92036 30.0261 4.7915 30.1949Z" fill="white"/>
<path fill-rule="evenodd" clip-rule="evenodd" d="M0.422108 20.6955L1.35342 20.577L1.24144 19.6721L0.315918 19.7403L0.422108 20.6955Z" fill="white"/>
<path fill-rule="evenodd" clip-rule="evenodd" d="M17.3196 35.9078L16.4291 35.769L16.2661 36.6601C16.4959 36.7709 16.9387 36.8444 17.2016 36.8019L17.3196 35.9078Z" fill="white"/>
<path fill-rule="evenodd" clip-rule="evenodd" d="M9.90828 34.3991C10.1093 34.2212 10.2788 33.8698 10.3998 33.6242C10.3077 33.5088 9.79409 33.2115 9.62175 33.1661L9.13379 33.9265L9.90828 34.3991Z" fill="white"/>
<path fill-rule="evenodd" clip-rule="evenodd" d="M12.4282 0.843723L12.7371 1.73093L13.59 1.42506C13.5348 1.1395 13.4412 0.778761 13.2892 0.55127L12.4282 0.843723Z" fill="white"/>
<path fill-rule="evenodd" clip-rule="evenodd" d="M7.45996 3.71567C7.51798 3.84449 7.86427 4.31645 7.99806 4.43334C8.15352 4.37034 8.53122 4.05045 8.71404 3.92656L8.22091 3.1582C8.04782 3.2223 7.59091 3.56643 7.45996 3.71567Z" fill="white"/>
<path fill-rule="evenodd" clip-rule="evenodd" d="M2.48169 11.6212C2.66549 11.4349 2.78203 11.056 2.87233 10.7997L2.03303 10.4065L1.67578 11.2493C1.88151 11.4151 2.22767 11.5132 2.48169 11.6212Z" fill="white"/>
<path fill-rule="evenodd" clip-rule="evenodd" d="M2.58789 27.0467C2.75876 27.3302 2.80766 27.5493 3.0549 27.8541L3.8358 27.4077C3.76263 27.1963 3.51292 26.7778 3.38012 26.6012L2.58789 27.0467Z" fill="white"/>
<path fill-rule="evenodd" clip-rule="evenodd" d="M1.65978 14.2249L0.743247 14.0276L0.55957 14.956L1.47389 15.1227L1.65978 14.2249Z" fill="white"/>
<path fill-rule="evenodd" clip-rule="evenodd" d="M0.22998 18.75L1.19357 18.7652L1.17103 17.8427L0.22998 17.8503V18.75Z" fill="white"/>
<path fill-rule="evenodd" clip-rule="evenodd" d="M1.332 16.0271L0.398095 15.9065L0.314941 16.815L0.750172 16.8984C0.916109 16.9114 1.08044 16.9265 1.23887 16.9367L1.332 16.0271Z" fill="white"/>
<path fill-rule="evenodd" clip-rule="evenodd" d="M14.2393 0.22946L14.4685 1.1329L15.3625 0.901845L15.1543 0L14.2393 0.22946Z" fill="white"/>
<path fill-rule="evenodd" clip-rule="evenodd" d="M13.7582 35.0743L12.8934 34.7831L12.562 35.6488L13.4619 35.9524L13.7582 35.0743Z" fill="white"/>
<path fill-rule="evenodd" clip-rule="evenodd" d="M2.18151 12.4941L1.30144 12.1669L1.02734 13.0884L1.90741 13.3448L2.18151 12.4941Z" fill="white"/>
<path fill-rule="evenodd" clip-rule="evenodd" d="M15.497 35.5749L14.6365 35.3593L14.3901 36.26L15.3118 36.486L15.497 35.5749Z" fill="white"/>
<path fill-rule="evenodd" clip-rule="evenodd" d="M10.6606 1.64301L11.0786 2.47067L11.8816 2.10169L11.5407 1.24512L10.6606 1.64301Z" fill="white"/>
<path fill-rule="evenodd" clip-rule="evenodd" d="M18.9561 36.0605L18.2426 36.0132L18.1421 36.8616C18.2305 36.9534 18.2657 36.9585 18.4701 36.9738C18.6202 36.985 18.7794 36.9913 18.9311 36.9999L18.9561 36.0605Z" fill="white"/>
<path fill-rule="evenodd" clip-rule="evenodd" d="M22.4811 32.4437C22.5531 33.3529 23.4451 33.2477 24.322 33.2477C27.6864 33.2477 27.7808 33.6394 27.7808 31.3755C27.7806 28.1241 28.193 27.9505 25.8982 27.9505C25.1507 27.9505 23.9529 27.8786 23.2591 27.9589C22.3731 28.0617 22.4777 28.9406 22.4777 29.8013C22.4776 30.6127 22.4192 31.6613 22.4811 32.4437Z" fill="white"/>
<path fill-rule="evenodd" clip-rule="evenodd" d="M23.6684 3.93123C22.8428 4.19538 23.0389 5.01787 23.0389 5.9645C23.0389 9.26638 22.7163 9.17841 25.1102 9.17841C25.5953 9.17841 27.3954 9.23686 27.7286 9.14175C28.5211 8.91586 28.344 7.9306 28.344 7.08879C28.344 6.60859 28.4012 4.80219 28.2978 4.46938C28.0662 3.72465 27.0571 3.8809 26.2362 3.8809C25.7458 3.88103 23.9984 3.82554 23.6684 3.93123Z" fill="white"/>
<path fill-rule="evenodd" clip-rule="evenodd" d="M29.6144 14.6224C29.7132 15.403 30.599 15.2799 31.3583 15.2799C31.9267 15.2799 33.2114 15.3485 33.697 15.2653C34.4641 15.1338 34.3457 14.3234 34.3459 13.5543C34.346 10.6387 34.7085 10.5452 32.5966 10.5452C32.0269 10.5452 30.7513 10.4766 30.2635 10.5585C29.4963 10.6873 29.6058 11.4846 29.6059 12.2612C29.606 12.9112 29.5391 14.0272 29.6144 14.6224Z" fill="white"/>
<path fill-rule="evenodd" clip-rule="evenodd" d="M22.0798 22.3805C22.1461 23.0424 22.8501 22.9596 23.4777 22.9595C25.8895 22.959 26.014 23.2635 26.0136 21.5372C26.0133 19.0747 26.2929 19.028 24.6034 19.0282C22.1771 19.0285 22.0746 18.7342 22.075 20.4128C22.0753 20.9918 22.025 21.8333 22.0798 22.3805Z" fill="white"/>
<path fill-rule="evenodd" clip-rule="evenodd" d="M29.3521 29.239C29.4494 29.6316 29.9262 29.5754 30.3448 29.5744C30.6321 29.5738 31.454 29.6104 31.6793 29.5572C32.0926 29.46 32.0352 29.0056 32.0341 28.5646C32.0304 26.9708 32.2328 26.8773 31.0205 26.8801C29.4349 26.8837 29.3334 26.682 29.3362 27.89C29.3367 28.1626 29.3014 29.0341 29.3521 29.239Z" fill="white"/>
<path fill-rule="evenodd" clip-rule="evenodd" d="M30.4012 9.39823C30.994 9.39811 31.3152 9.42407 31.8917 9.35357C32.0702 9.05251 32.0067 8.60798 32.0081 8.15681C32.0113 7.15937 32.0785 7.28807 30.4012 7.28819C29.7359 7.28819 29.8931 7.70921 29.8931 8.32574C29.8933 8.92664 29.7265 9.39823 30.4012 9.39823Z" fill="white"/>
<path fill-rule="evenodd" clip-rule="evenodd" d="M20.1445 3.79394C20.4805 3.97135 21.6687 3.96213 22.083 3.83392C22.2461 3.48647 22.1868 2.89849 22.1892 2.4205C22.193 1.66052 21.9196 1.80065 21.2261 1.80164C20.6397 1.80262 20.1166 1.63049 20.0847 2.24997C20.0648 2.63716 20.059 3.48155 20.1445 3.79394Z" fill="white"/>
<path fill-rule="evenodd" clip-rule="evenodd" d="M20.5918 24.5613C20.4314 24.9047 20.4903 25.537 20.4999 25.9822C20.5138 26.6232 20.9394 26.4629 21.5077 26.4632C22.1319 26.4634 22.4745 26.6126 22.4755 25.9257C22.4761 25.5354 22.6088 24.8002 22.3151 24.5492C22.0332 24.4365 20.8784 24.4684 20.5918 24.5613Z" fill="white"/>
<path fill-rule="evenodd" clip-rule="evenodd" d="M35.411 18.0473C35.8369 18.0473 35.8947 17.9449 35.8948 17.5457C35.8949 16.473 36.0381 16.0803 35.411 16.0803C34.1451 16.0801 33.9307 15.9434 33.9261 16.5901C33.921 17.3002 33.8668 17.2986 33.9879 17.9605C34.3378 18.103 34.938 18.0472 35.411 18.0473Z" fill="white"/>
<path fill-rule="evenodd" clip-rule="evenodd" d="M20.5396 33.6679C20.4538 33.952 20.448 34.8136 20.5522 35.0842C20.8237 35.1783 21.6863 35.1777 21.9587 35.0858C22.0623 34.8182 22.0562 33.9474 21.9712 33.6659C21.6837 33.5702 20.8233 33.5679 20.5396 33.6679Z" fill="white"/>
<path fill-rule="evenodd" clip-rule="evenodd" d="M20.4672 7.87609C20.4671 8.60261 20.3726 8.83133 20.7238 8.87292C20.8869 8.89211 21.2135 8.87181 21.3947 8.87206C21.9168 8.87107 21.8361 8.84856 21.8361 7.87609C21.8361 7.4173 21.706 7.50416 20.8882 7.50404C20.5417 7.50379 20.4673 7.50121 20.4672 7.87609Z" fill="white"/>
<path fill-rule="evenodd" clip-rule="evenodd" d="M29.6698 16.1945C29.4848 16.0891 29.0639 16.1143 28.8185 16.1326C28.4359 16.1614 28.5327 16.4002 28.5317 16.7591C28.5306 17.1654 28.4491 17.3242 28.8755 17.3437C29.1005 17.354 29.5177 17.4064 29.6627 17.2541C29.7989 17.0831 29.7936 16.4213 29.6698 16.1945Z" fill="white"/>
<path fill-rule="evenodd" clip-rule="evenodd" d="M28.5476 10.1197C28.4188 10.043 27.7939 9.97001 27.6494 10.1291C27.5398 10.2498 27.6017 10.887 27.6312 11.0368C27.8323 11.079 28.356 11.1381 28.5178 11.0096C28.6259 10.9109 28.5674 11.0765 28.6133 10.8012C28.646 10.6066 28.6305 10.2495 28.5476 10.1197Z" fill="white"/>
<path fill-rule="evenodd" clip-rule="evenodd" d="M25.6281 24.781C25.4812 24.721 25.1421 24.707 24.9384 24.7372C24.6467 24.7803 24.7083 24.9412 24.7076 25.2483C24.7067 25.6099 24.645 25.6997 24.9896 25.7281C25.2028 25.7458 25.4537 25.7376 25.6564 25.6806C25.7225 25.4547 25.7322 25.1054 25.6676 24.8696L25.6281 24.781Z" fill="white"/>
<path fill-rule="evenodd" clip-rule="evenodd" d="M4.67285 6.42052C4.78126 6.47613 5.25 6.86517 5.33463 6.97147C5.55637 6.83367 5.83922 6.50246 5.9608 6.28826C5.8163 6.0978 5.50389 5.79255 5.29619 5.6897C5.06681 5.92297 4.82388 6.11601 4.67285 6.42052Z" fill="white"/>
<path fill-rule="evenodd" clip-rule="evenodd" d="M3.5083 7.91935C3.72142 8.07339 4.05711 8.3277 4.27725 8.43031C4.42139 8.16886 4.64682 7.94334 4.76854 7.70724C4.64066 7.54926 4.2148 7.20797 4.05761 7.15112C3.9354 7.25558 3.56632 7.76531 3.5083 7.91935Z" fill="white"/>
<path fill-rule="evenodd" clip-rule="evenodd" d="M6.10449 31.5603C6.32956 31.8038 6.54564 32.0157 6.81431 32.2008C6.98912 32.0433 7.21283 31.7395 7.3869 31.5443C7.28194 31.3333 6.88737 30.9982 6.70394 30.9268L6.10449 31.5603Z" fill="white"/>
<path fill-rule="evenodd" clip-rule="evenodd" d="M4.0209 29.2753C4.03888 29.2954 4.08533 29.3397 4.10676 29.3599C4.11305 29.3656 4.13386 29.3957 4.13842 29.3862C4.14298 29.3765 4.15924 29.404 4.17045 29.4119C4.35142 29.3109 4.77421 28.9964 4.89124 28.8457C4.71397 28.6282 4.54581 28.3436 4.33947 28.1603C4.17809 28.2377 3.74224 28.5419 3.61523 28.6769L4.0209 29.2753Z" fill="white"/>
<path fill-rule="evenodd" clip-rule="evenodd" d="M9.00684 2.57884C9.13914 2.88877 9.34204 3.09288 9.45993 3.38497C9.73477 3.2938 9.99223 3.062 10.2556 2.9552C10.185 2.75023 9.95836 2.30509 9.79932 2.12927C9.52313 2.26461 9.24927 2.48226 9.00684 2.57884Z" fill="white"/>
<path fill-rule="evenodd" clip-rule="evenodd" d="M3.34106 9.98374C3.44318 9.66963 3.6494 9.48544 3.74217 9.16088C3.44836 9.04879 3.20986 8.80199 2.94143 8.7262L2.49561 9.55127L3.34106 9.98374Z" fill="white"/>
<path fill-rule="evenodd" clip-rule="evenodd" d="M12.0486 34.4135L11.2202 34.0355L10.8154 34.8804L11.6811 35.2543L12.0486 34.4135Z" fill="white"/>
<path fill-rule="evenodd" clip-rule="evenodd" d="M3.15452 12.8027C2.73494 13.4825 2.31634 15.948 2.22616 16.9507C2.08289 18.5419 2.16839 20.1938 2.47698 21.7103C3.08135 24.6803 4.15803 26.6696 5.59923 28.6547C6.2323 29.5267 6.6626 29.923 7.41394 30.667C8.55369 31.7959 9.59995 32.5189 11.0478 33.3318C13.2616 34.5748 16.0876 35.3032 19.0921 35.3549L19.0803 29.0807C13.1903 29.0519 8.58154 24.476 8.44135 18.452C7.54489 18.4179 6.59251 18.445 5.69014 18.4463C4.71435 18.4477 4.15433 18.3063 3.68202 17.7508C3.14035 17.1135 3.16265 16.5245 3.16265 15.5217C3.1629 14.6355 3.19653 13.6805 3.15452 12.8027Z" fill="white"/>
<path fill-rule="evenodd" clip-rule="evenodd" d="M73.8493 13.1685C72.5094 13.1087 71.0454 13.1617 69.6918 13.1617C68.2734 13.1617 67.2524 13.0729 65.9976 13.5744C64.2738 14.2632 62.7014 15.9694 62.4815 18.2747C62.2302 20.908 63.7218 22.8074 65.2029 23.7151C66.0837 24.255 67.2539 24.5883 68.512 24.5166C70.0425 24.4293 70.5163 24.0043 71.5465 23.4283C71.5468 24.8231 71.4824 25.594 70.7534 26.4771C70.4813 26.807 70.1015 27.1189 69.6819 27.3183C69.0486 27.6193 68.8456 27.5634 68.1421 27.6964L68.1411 29.9481C68.7718 30.0781 70.0051 29.7057 70.4897 29.4736C71.202 29.1327 71.6942 28.7767 72.1535 28.3245C73.015 27.4761 73.7568 26.1413 73.8458 24.396C73.9364 22.6145 73.8508 20.5907 73.8508 18.7823C73.8508 16.9135 73.8683 15.0364 73.8493 13.1685ZM71.5464 15.4468C71.5474 16.8924 71.7391 19.1284 71.2407 20.2757C70.7496 21.4059 69.4972 22.2609 68.1157 22.2456C67.0956 22.2343 66.2298 21.7388 65.7437 21.2638C63.7636 19.3292 64.8546 15.4907 68.1719 15.4449C69.2855 15.4295 70.4325 15.4322 71.5464 15.4468Z" fill="white"/>
<path fill-rule="evenodd" clip-rule="evenodd" d="M11.6005 10.844C12.0903 10.6076 14.2914 7.84377 19.0921 7.80932L19.0787 1.53467C15.5948 1.58942 12.5809 2.55659 10.1615 4.07706C8.58858 5.06552 7.78686 5.83338 6.61323 6.99778C6.11332 7.49386 4.75614 9.30911 4.49707 9.89919C5.40239 9.66923 7.49921 9.78316 8.56074 9.78316C10.3304 9.78316 10.639 9.63405 11.6005 10.844Z" fill="white"/>
<path fill-rule="evenodd" clip-rule="evenodd" d="M59.297 19.4578L59.3018 24.5634L61.6009 24.5662L61.5962 13.2189L59.2975 13.2387L59.2974 16.9835C59.2018 17.1343 59.1199 17.1218 58.9053 17.1753C58.7592 17.2118 58.6266 17.2464 58.4613 17.2922C57.4089 17.5834 53.2284 18.7366 52.5071 18.8724L52.5044 13.2223L50.2031 13.2199L50.212 24.5667L52.5065 24.5514L52.5104 21.2598L59.297 19.4578Z" fill="white"/>
<path fill-rule="evenodd" clip-rule="evenodd" d="M95.877 19.4573C96.1361 22.478 98.7584 25.0018 102.121 24.6944C105.152 24.4172 107.524 21.682 107.244 18.2743C106.993 15.2254 104.358 12.7129 100.982 13.0382C97.9253 13.3326 95.5827 16.0255 95.877 19.4573ZM105.017 19.3447C104.455 23.9076 97.5774 23.3581 98.1267 18.3357C98.3292 16.485 99.9546 14.9718 102.088 15.2682C103.88 15.5175 105.278 17.2262 105.017 19.3447Z" fill="white"/>
<path fill-rule="evenodd" clip-rule="evenodd" d="M37.8394 13.1683C37.8172 15.0577 37.8087 17.0071 37.8386 18.8954C37.8665 20.6756 38.6421 22.0246 39.5075 22.8992C40.3866 23.7875 41.7596 24.5473 43.5722 24.5654C44.3716 24.5734 48.7832 24.6132 49.2365 24.5465L49.2354 13.1647L46.9331 13.1613L46.9327 22.25C46.2789 22.3239 43.6216 22.3194 43.0059 22.2212C41.8457 22.0361 41.1009 21.3353 40.6282 20.5998C39.9913 19.6089 40.1418 18.3795 40.1418 17.0959C40.1418 15.7861 40.1542 14.4702 40.1401 13.1613L37.8394 13.1683Z" fill="white"/>
<path fill-rule="evenodd" clip-rule="evenodd" d="M75.0319 13.1613C75.0046 15.0514 75.0046 17.0047 75.0305 18.8951C75.0546 20.6581 75.8534 22.0669 76.6989 22.9153C77.5416 23.7607 78.9622 24.5421 80.7226 24.5654C82.616 24.5902 84.5229 24.5608 86.4272 24.5665L86.4251 13.1604L84.1246 13.1844L84.123 22.2657C81.223 22.2674 79.1204 22.7048 77.8288 20.6049C77.1749 19.5417 77.3334 18.4479 77.3334 17.096C77.3334 15.7906 77.3449 14.4802 77.332 13.1638L75.0319 13.1613Z" fill="white"/>
<path fill-rule="evenodd" clip-rule="evenodd" d="M89.8927 15.5235C90.9527 15.5233 91.8838 15.4706 92.6105 16.4689C92.8437 16.7893 92.8336 17.0219 92.9958 17.0681L95.2512 17.0693C95.2177 15.2383 94.217 14.1542 92.9847 13.563C91.8621 13.0247 89.0207 13.2203 87.5737 13.2203L87.5798 24.5665L89.8877 24.5592L89.8924 24.3482L89.8927 15.5235Z" fill="white"/>
<path fill-rule="evenodd" clip-rule="evenodd" d="M11.0439 17.0954C10.9508 17.277 11.0578 17.0449 11.0301 17.3074C11.0185 17.4169 10.9743 17.601 10.8499 17.638C10.7108 17.6794 10.7473 17.612 10.6651 17.5708C10.7656 17.7602 10.8838 17.721 11.0139 18.0309C10.6372 17.941 10.7979 17.7961 10.6431 17.906C10.6784 18.0218 10.6057 17.8923 10.7138 18.0388L12.1544 19.457C12.029 20.6788 12.0737 22.0008 12.0737 23.2798C12.0737 24.8152 11.9086 25.6376 13.6267 25.633C18.9873 25.6185 18.8603 26.1318 18.8603 23.0549L18.8613 20.0727C18.8423 19.2095 18.3962 19.8112 19.8535 18.3673C20.0335 18.189 20.6502 17.4695 20.8667 17.4678C22.1234 17.458 23.4832 17.4999 24.7723 17.4995C26.1718 17.4992 25.9842 17.3519 26.3725 17.7465C26.6133 17.9912 27.1009 18.5345 27.3506 18.6887C27.3267 18.4138 27.3301 18.6167 27.418 18.5356L27.7821 18.9126L28.0645 18.8761C28.071 18.8757 28.0878 18.8725 28.0945 18.872C28.1016 18.8716 28.1192 18.8685 28.1263 18.8681L28.2686 18.8646C28.3766 18.8415 28.2829 18.7246 28.5235 18.8773L28.1149 18.4451C28.2194 18.3361 28.0837 18.4052 28.269 18.3826C28.0285 18.0126 27.2268 17.34 26.8717 16.9631C26.6767 16.7558 26.7879 16.7911 26.8159 16.4247L26.8029 11.6443C26.7466 11.2769 26.4753 10.9767 26.1928 10.8414C25.7627 10.6351 22.7188 10.7304 22.1267 10.7302C21.1543 10.7298 20.3819 10.6438 20.1038 11.4775C19.9322 11.9919 20.0431 16.14 20.1108 16.8826L18.4665 18.4999C17.9517 19.0156 18.21 18.8544 17.286 18.855L14.0209 18.8539C13.0008 18.8535 12.9599 18.9809 12.6656 18.6754C12.3778 18.3763 11.2981 17.2232 11.0439 17.0954Z" fill="white"/>
<path fill-rule="evenodd" clip-rule="evenodd" d="M27.3506 18.6888C27.459 18.9065 27.8718 19.276 28.089 19.4571C27.9831 20.5521 28.0107 21.6411 28.0107 22.774C28.0107 23.9133 27.766 25.1144 28.6604 25.5275C29.0721 25.7176 31.2858 25.6317 31.9212 25.6312C35.1037 25.6287 34.7923 25.8536 34.7923 21.8184C34.7923 21.2232 34.8832 19.8329 34.6554 19.4246C34.5708 19.2729 34.3762 19.0838 34.2347 19.0021C33.8155 18.7599 30.2659 18.8437 29.3296 18.8542C28.9535 18.8586 28.8813 18.9523 28.6797 18.7622C28.5243 18.6156 28.4513 18.4865 28.2689 18.3827C28.0836 18.4053 28.2194 18.3361 28.1148 18.4452L28.5234 18.8774C28.2828 18.7248 28.3766 18.8417 28.2685 18.8647L28.1262 18.8681C28.1191 18.8686 28.1015 18.8717 28.0944 18.8721C28.0877 18.8726 28.0709 18.8758 28.0644 18.8761L27.782 18.9127L27.4179 18.5357C27.3302 18.6168 27.3266 18.4139 27.3506 18.6888Z" fill="white"/>
<path fill-rule="evenodd" clip-rule="evenodd" d="M10.6432 17.9061C10.7979 17.7959 10.6373 17.9409 11.014 18.0309C10.8839 17.7209 10.7658 17.7603 10.6652 17.5708C10.7474 17.612 10.7109 17.6794 10.85 17.638C10.9744 17.601 11.0187 17.4169 11.0303 17.3074C11.058 17.0449 10.9509 17.277 11.044 17.0954C10.7882 16.688 10.8134 17.0753 10.8789 16.4804L10.8893 12.261C10.8939 10.675 10.2137 10.7304 8.95499 10.73L5.57749 10.7278C3.71338 10.719 4.10882 11.945 4.10882 14.3972C4.10882 15.5278 3.91504 16.8368 4.58175 17.3038C5.20472 17.7402 9.99509 17.3871 10.1879 17.5023C10.3372 17.5913 10.4125 17.7826 10.6432 17.9061Z" fill="white"/>
<path fill-rule="evenodd" clip-rule="evenodd" d="M105.715 10.8164V11.0946C105.725 11.1197 105.739 11.3264 105.747 11.3785C105.829 11.9374 106.103 12.4588 106.486 12.8418C106.868 13.2247 107.389 13.5029 107.953 13.5867C107.998 13.5933 108.211 13.6109 108.229 13.6188H108.5C108.531 13.6036 108.725 13.5929 108.776 13.5844C109.035 13.5414 109.265 13.4705 109.495 13.3608C110.272 12.9909 110.847 12.2356 110.968 11.3777C110.975 11.3304 110.992 11.1153 111 11.0946V10.8032C110.986 10.7784 110.984 10.6988 110.979 10.6637C110.907 10.0663 110.632 9.51568 110.218 9.10683C109.905 8.79752 109.498 8.55305 109.037 8.43076C108.957 8.40935 108.87 8.3904 108.782 8.37638C108.737 8.36924 108.691 8.36272 108.645 8.35878L108.514 8.34106H108.18C108.158 8.35337 108.129 8.35165 108.103 8.35398L107.907 8.38044C107.362 8.47443 106.858 8.74191 106.486 9.11803C106.174 9.43288 105.93 9.83089 105.806 10.295C105.784 10.3773 105.765 10.4616 105.751 10.5493C105.745 10.5924 105.738 10.6369 105.733 10.6792L105.718 10.8105C105.717 10.8094 105.716 10.8144 105.715 10.8164ZM108.194 8.78534C108.49 8.74486 108.898 8.82951 109.141 8.92253C109.654 9.11864 110.046 9.47508 110.309 9.95811C110.733 10.7382 110.606 11.7993 109.999 12.446C109.594 12.8785 109.159 13.1066 108.526 13.1744C108.213 13.2078 107.834 13.1375 107.574 13.0368C107.328 12.9419 107.073 12.7926 106.889 12.6195C106.46 12.2162 106.224 11.7803 106.161 11.1463C106.094 10.4845 106.4 9.85095 106.716 9.51322C106.889 9.32694 107.065 9.17339 107.334 9.0308C107.651 8.86298 107.848 8.83296 108.194 8.78534Z" fill="white"/>
<path fill-rule="evenodd" clip-rule="evenodd" d="M108.589 11.1658C109.372 11.0857 109.594 10.331 109.197 9.87746C108.998 9.64923 108.724 9.61232 108.328 9.60716C108.246 9.60605 107.264 9.59215 107.206 9.60236L107.207 12.4347L107.66 12.4327C107.675 12.2139 107.643 11.3245 107.666 11.2313C108.146 11.2336 108.264 11.1937 108.557 11.6257C108.694 11.8284 108.904 12.2082 109.03 12.4347L109.582 12.4355C109.575 12.4047 109.396 12.1286 109.364 12.0782C109.293 11.9617 109.221 11.845 109.145 11.7322C109.06 11.6076 108.994 11.5143 108.902 11.4088C108.86 11.3604 108.815 11.3075 108.758 11.2665C108.736 11.2514 108.595 11.1776 108.589 11.1658ZM107.662 10.8465L107.66 9.98475C107.82 9.9834 108.348 9.98229 108.479 9.99804C108.971 10.057 108.99 10.5081 108.78 10.7079C108.622 10.859 108.29 10.8402 108.078 10.8414C107.942 10.8422 107.8 10.844 107.662 10.8465Z" fill="white"/>
</svg>
