<svg width="43" height="43" viewBox="0 0 43 43" fill="none" xmlns="http://www.w3.org/2000/svg">
<g clip-path="url(#clip0)">
<path d="M41.3105 13.1321C40.2277 10.5717 38.6778 8.27242 36.7037 6.29811C34.7296 4.32377 32.4305 2.77354 29.8703 1.69048C27.2191 0.56891 24.4033 0.000167969 21.5 0C18.5982 0 15.7826 0.568574 13.1314 1.68989C10.5712 2.77274 8.27204 4.32276 6.29782 6.29685C4.3236 8.27095 2.77346 10.57 1.69044 13.1302C0.56891 15.7813 0.000168006 18.5969 3.72134e-08 21.4987C-0.000167932 24.4008 0.56828 27.2166 1.68951 29.868C2.77228 32.4283 4.32226 34.7276 6.29635 36.7019C8.27044 38.6763 10.5696 40.2265 13.1298 41.3096C15.781 42.4311 18.5968 42.9999 21.4998 43H21.5002C24.402 43 27.2176 42.4315 29.8687 41.3102C32.429 40.2273 34.7281 38.6773 36.7023 36.7032C38.6764 34.7292 40.2266 32.4301 41.3096 29.8699C42.4312 27.2188 42.9999 24.4031 43 21.5013C43.0002 18.5992 42.4317 15.7834 41.3105 13.1321ZM21.5002 40.9981H21.4989C16.2908 40.9979 11.3945 38.9694 7.71191 35.2864C4.02944 31.6035 2.00156 26.707 2.00185 21.4989C2.00248 10.7482 10.7493 2.00189 21.5012 2.00189C26.7093 2.00219 31.6056 4.03062 35.2881 7.71354C38.9706 11.3965 40.9984 16.293 40.9981 21.5011C40.9975 32.2518 32.2508 40.9981 21.5002 40.9981Z" fill="white"/>
<path d="M6.48791 16.7687C6.81125 17.6127 7.2098 18.4265 7.62115 19.2303C8.5986 21.1401 9.6052 22.9959 10.9548 24.6745C12.3186 26.3708 13.9289 28.0147 15.8257 29.1121C16.3533 29.4173 16.9078 29.6747 17.4855 29.8705C19.7144 30.6254 22.1591 30.5536 22.914 30.0502C23.669 29.5469 22.7702 26.2394 23.4533 25.844C24.1363 25.4485 25.3587 26.3114 26.2574 27.1023C27.1561 27.8932 27.8392 28.5762 28.3425 29.1155C28.6577 29.4532 28.8796 29.8562 29.2905 30.0971C29.9702 30.4954 30.8758 30.4513 31.634 30.4534C32.0567 30.4546 32.4794 30.4561 32.9021 30.4508C33.1878 30.4472 33.4736 30.4565 33.759 30.4427C34.2281 30.4199 34.8415 30.2347 34.8063 29.6479C34.798 29.5091 34.7673 29.3432 34.7121 29.2151C34.5936 28.9398 34.4267 28.6542 34.2473 28.4144C33.3126 27.1652 32.6925 26.5271 32.2252 26.0237C31.7578 25.5205 29.8344 23.7049 29.7086 23.3454C29.5828 22.9859 29.5423 22.8264 29.8996 22.3411C30.2569 21.8557 31.0388 20.6311 31.65 19.7504C32.0333 19.198 32.3815 18.6204 32.7255 18.043C33.1311 17.3623 33.5126 16.6651 33.8377 15.9422C33.983 15.619 34.115 15.3245 34.025 14.9622C33.9646 14.7196 33.8281 14.5064 33.574 14.4465C33.4353 14.4138 33.2839 14.4105 33.1419 14.4105C32.6117 14.4105 31.2275 14.4105 31.2275 14.4105C30.9773 14.4105 30.7271 14.4068 30.4769 14.4073C30.2203 14.4078 29.9617 14.4058 29.7059 14.4277C29.342 14.4588 29.119 14.7395 28.9359 15.0224C28.712 15.3686 28.5081 15.7288 28.2909 16.0794C28.1424 16.319 27.9971 16.5605 27.8543 16.8035C27.6313 17.1831 27.4015 17.5587 27.1717 17.9342C27.0763 18.09 26.9806 18.2456 26.8866 18.4023C26.617 18.8516 24.2802 21.9253 23.8129 22.0512C23.3455 22.1771 23.1838 22.1412 23.1838 21.1884C23.1838 20.2357 23.1838 14.8252 23.1838 14.8252C23.1838 14.8252 23.1479 14.408 22.7524 14.408C22.3569 14.408 20.5227 14.408 20.5227 14.408H16.7396C16.7396 14.408 15.8499 14.4117 16.1644 15.2117C16.479 16.0116 17.4092 16.2543 17.4092 17.5889C17.4092 18.9235 17.4092 22.8196 17.4092 22.8196C17.4092 22.8196 17.252 23.9925 16.2364 23.0218C15.436 22.257 14.7766 21.3526 14.194 20.4149C13.5882 19.4401 13.1002 18.4273 12.6655 17.3662C12.5411 17.0627 12.418 16.7587 12.2903 16.4567C12.157 16.1414 12.025 15.8255 11.8971 15.508C11.7487 15.1391 11.5899 14.657 11.1896 14.4872C10.9884 14.4018 10.7658 14.406 10.5513 14.4061C9.75587 14.4063 8.96045 14.4085 8.16503 14.407C7.93164 14.4066 7.69825 14.4063 7.46486 14.4069C6.91379 14.4082 6.2284 14.3919 6.09767 15.0804C6.02234 15.4769 6.17208 15.9002 6.29743 16.2716C6.35425 16.4404 6.42433 16.6027 6.48791 16.7687Z" fill="white"/>
</g>
<defs>
<clipPath id="clip0">
<rect width="43" height="43" fill="white"/>
</clipPath>
</defs>
</svg>
