<svg width="44" height="44" viewBox="0 0 44 44" fill="none" xmlns="http://www.w3.org/2000/svg">
<path d="M1.78136 43.0157C1.65465 43.016 1.52969 42.9861 1.41684 42.9285C1.304 42.8708 1.20653 42.7871 1.13251 42.6843C1.0585 42.5814 1.01007 42.4624 0.991257 42.3371C0.972441 42.2118 0.983778 42.0838 1.02432 41.9638L4.17198 32.7041C1.69561 28.5844 0.664443 23.7563 1.2418 18.9844C1.81917 14.2125 3.97205 9.76962 7.35948 6.35941C11.3812 2.35553 16.8251 0.107666 22.5001 0.107666C28.1751 0.107666 33.619 2.35553 37.6407 6.35941C41.1859 9.95559 43.3499 14.6864 43.7522 19.7202C44.1546 24.754 42.7695 29.7685 39.8406 33.8821C36.9116 37.9958 32.6263 40.9453 27.7379 42.212C22.8496 43.4788 17.6711 42.9818 13.1129 40.8083L1.94073 43.0157H1.78136ZM13.2165 39.1508C13.3413 39.1516 13.4641 39.1816 13.5751 39.2385C17.7911 41.3414 22.6171 41.8781 27.1921 40.753C31.7671 39.6279 35.7937 36.914 38.5534 33.0955C41.3132 29.2771 42.6267 24.6023 42.2595 19.9053C41.8924 15.2083 39.8685 10.7944 36.549 7.45113C34.7042 5.60595 32.514 4.14226 30.1035 3.14364C27.6929 2.14501 25.1093 1.63103 22.5001 1.63103C19.8909 1.63103 17.3073 2.14501 14.8967 3.14364C12.4862 4.14226 10.296 5.60595 8.4512 7.45113C5.27728 10.6583 3.28204 14.8451 2.79011 19.3304C2.29818 23.8156 3.3385 28.3354 5.74182 32.1543C5.80561 32.2552 5.84589 32.3692 5.85968 32.4878C5.87347 32.6065 5.86043 32.7267 5.82151 32.8396L2.98464 41.1988L13.0731 39.1907L13.2165 39.1508Z" fill="white"/>
<path d="M28.2136 32.6563C27.9694 32.6696 27.7246 32.6696 27.4804 32.6563C23.249 32.1941 17.9179 28.0105 16.4118 26.5363C14.9376 25.0621 10.7461 19.6991 10.2918 15.4677C9.92527 12.0889 12.1804 9.79394 13.1686 8.95722C13.6104 8.57767 14.1804 8.38101 14.7623 8.40737L16.9139 8.47909C17.0712 8.48492 17.2233 8.53723 17.3509 8.62941C17.4786 8.7216 17.5761 8.84953 17.6311 8.99706C18.1092 10.2641 19.6551 14.4796 19.6551 15.5713C19.6551 16.5275 18.8104 17.2686 18.0614 17.9221C17.902 18.0575 17.6868 18.2488 17.5593 18.3842C18.3647 19.8561 19.3294 21.235 20.4361 22.4961C21.6973 23.6026 23.0762 24.5673 24.5479 25.3728C24.6834 25.2374 24.8747 25.0222 25.0101 24.8708C25.6636 24.1217 26.4046 23.2771 27.4007 23.2771C28.4925 23.2771 32.7079 24.823 33.975 25.3011C34.1225 25.3561 34.2504 25.4536 34.3426 25.5812C34.4348 25.7089 34.4871 25.861 34.4929 26.0183L34.5646 28.1699C34.581 28.7503 34.3855 29.3168 34.0148 29.7636C33.3106 30.6323 32.4285 31.3399 31.4278 31.8389C30.4271 32.3379 29.3311 32.6166 28.2136 32.6563ZM17.5434 25.3888C18.8582 26.7036 23.9184 30.6482 27.6557 31.0546C30.2775 31.3335 32.1103 29.5246 32.7797 28.7357C32.8992 28.587 32.9614 28.4004 32.955 28.2097L32.8992 26.616C31.1079 25.8976 29.2644 25.3169 27.3848 24.8788C27.1298 24.8788 26.5003 25.6199 26.2293 25.9307C25.6875 26.5522 25.2571 27.0383 24.6356 27.0383C23.6236 27.0383 20.0934 24.4246 19.3045 23.6357C18.5156 22.8468 15.9257 19.2927 15.9257 18.3125C15.9257 17.7149 16.4118 17.2846 17.0334 16.7188C17.3362 16.4478 18.0614 15.8263 18.0853 15.5633C17.647 13.6838 17.0663 11.8403 16.3481 10.0489L14.7543 9.99316C14.5637 9.98676 14.3771 10.049 14.2284 10.1685C13.4315 10.8378 11.6226 12.6707 11.9095 15.2844C12.3159 19.0457 16.2604 24.05 17.5753 25.3967L17.5434 25.3888Z" fill="white"/>
</svg>
